<svg width="25" height="25" viewBox="0 0 25 25" fill="none" xmlns="http://www.w3.org/2000/svg">
<path id="Vector" d="M7.7125 0.95C9.23135 0.324935 10.8576 0.0022394 12.5 0C14.1375 0 15.7625 0.325 17.2875 0.95C18.8 1.575 20.175 2.5 21.3375 3.6625C22.5 4.825 23.425 6.2 24.05 7.7125C24.675 9.2375 25 10.8625 25 12.5C25 15.8125 23.6875 19 21.3375 21.3375C20.1781 22.4998 18.8006 23.4216 17.284 24.0501C15.7674 24.6786 14.1417 25.0014 12.5 25C10.8576 24.9978 9.23135 24.6751 7.7125 24.05C6.1972 23.4211 4.8209 22.4993 3.6625 21.3375C2.50025 20.1781 1.57841 18.8006 0.949902 17.284C0.321391 15.7674 -0.00141755 14.1417 4.67914e-06 12.5C4.67914e-06 9.1875 1.3125 6 3.6625 3.6625C4.825 2.5 6.2 1.575 7.7125 0.95ZM12.5 18.75L14.45 14.475L18.75 12.5L14.45 10.55L12.5 6.25L10.5375 10.55L6.25 12.5L10.5375 14.475L12.5 18.75Z" fill="#014370"/>
</svg>
