<svg width="22" height="21" viewBox="0 0 22 21" fill="none" xmlns="http://www.w3.org/2000/svg">
<path id="Vector" d="M19.19 15.8692H17.4737C17.3565 15.8692 17.2466 15.9204 17.1734 16.0108C17.0025 16.2183 16.8194 16.4185 16.6265 16.6089C15.8377 17.3986 14.9033 18.0278 13.8751 18.462C12.8098 18.9119 11.6648 19.1427 10.5084 19.1407C9.33892 19.1407 8.20611 18.9112 7.14166 18.462C6.11341 18.0278 5.17903 17.3986 4.39019 16.6089C3.59995 15.822 2.96982 14.8892 2.53472 13.8623C2.08306 12.7979 1.85601 11.6675 1.85601 10.4981C1.85601 9.32865 2.0855 8.19828 2.53472 7.13383C2.96929 6.106 3.59429 5.1807 4.39019 4.38724C5.18609 3.59379 6.11138 2.96879 7.14166 2.53422C8.20611 2.085 9.33892 1.85551 10.5084 1.85551C11.6778 1.85551 12.8106 2.08256 13.8751 2.53422C14.9053 2.96879 15.8306 3.59379 16.6265 4.38724C16.8194 4.58012 17.0001 4.78031 17.1734 4.98539C17.2466 5.07572 17.3589 5.12699 17.4737 5.12699H19.19C19.3438 5.12699 19.439 4.95609 19.3536 4.8267C17.481 1.91654 14.2046 -0.00972867 10.4815 3.69596e-05C4.63189 0.0146854 -0.0580507 4.76322 0.000543102 10.6055C0.0591369 16.355 4.74175 20.9961 10.5084 20.9961C14.2217 20.9961 17.4835 19.0723 19.3536 16.1695C19.4366 16.0401 19.3438 15.8692 19.19 15.8692ZM21.3604 10.3443L17.896 7.6099C17.7667 7.50736 17.5787 7.60014 17.5787 7.76371V9.61918H9.91265C9.80523 9.61918 9.71734 9.70707 9.71734 9.81449V11.1817C9.71734 11.2891 9.80523 11.377 9.91265 11.377H17.5787V13.2325C17.5787 13.396 17.7691 13.4888 17.896 13.3863L21.3604 10.6519C21.3838 10.6336 21.4026 10.6103 21.4156 10.5836C21.4286 10.557 21.4353 10.5277 21.4353 10.4981C21.4353 10.4684 21.4286 10.4392 21.4156 10.4125C21.4026 10.3859 21.3838 10.3625 21.3604 10.3443Z" fill="white"/>
</svg>
