<svg width="21" height="18" viewBox="0 0 21 18" fill="none" xmlns="http://www.w3.org/2000/svg">
<path id="Vector" d="M17.9688 2.34375H15.2617L13.9307 0.347656C13.8594 0.240773 13.7628 0.153128 13.6495 0.0924859C13.5362 0.0318439 13.4097 7.71532e-05 13.2812 0H7.03125C6.90276 7.71532e-05 6.77628 0.0318439 6.663 0.0924859C6.54972 0.153128 6.45315 0.240773 6.38184 0.347656L5.0498 2.34375H2.34375C1.72215 2.34375 1.12601 2.59068 0.686469 3.03022C0.24693 3.46976 0 4.0659 0 4.6875V15.625C0 16.2466 0.24693 16.8427 0.686469 17.2823C1.12601 17.7218 1.72215 17.9688 2.34375 17.9688H17.9688C18.5904 17.9688 19.1865 17.7218 19.626 17.2823C20.0656 16.8427 20.3125 16.2466 20.3125 15.625V4.6875C20.3125 4.0659 20.0656 3.46976 19.626 3.03022C19.1865 2.59068 18.5904 2.34375 17.9688 2.34375ZM13.6719 9.76562C13.6719 10.4609 13.4657 11.1407 13.0794 11.7188C12.6931 12.2969 12.144 12.7475 11.5016 13.0136C10.8592 13.2797 10.1523 13.3493 9.47039 13.2137C8.78842 13.078 8.162 12.7432 7.67033 12.2515C7.17866 11.7599 6.84383 11.1335 6.70818 10.4515C6.57253 9.76953 6.64215 9.06265 6.90824 8.42025C7.17432 7.77786 7.62493 7.22879 8.20307 6.84249C8.78121 6.45619 9.46093 6.25 10.1562 6.25C11.0887 6.25 11.9829 6.6204 12.6422 7.2797C13.3015 7.93901 13.6719 8.83322 13.6719 9.76562Z" fill="#014370"/>
</svg>
