<svg width="25" height="24" viewBox="0 0 25 24" fill="none" xmlns="http://www.w3.org/2000/svg">
<path id="Vector" d="M9.0796 24L8.58209 20.16C8.3126 20.06 8.05846 19.94 7.81965 19.8C7.58085 19.66 7.34785 19.51 7.12065 19.35L3.4204 20.85L0 15.15L3.20274 12.81C3.18201 12.67 3.17164 12.5348 3.17164 12.4044V11.5956C3.17164 11.4652 3.18201 11.33 3.20274 11.19L0 8.85L3.4204 3.15L7.12065 4.65C7.34867 4.49 7.58707 4.34 7.83582 4.2C8.08458 4.06 8.33333 3.94 8.58209 3.84L9.0796 0H15.9204L16.4179 3.84C16.6874 3.94 16.9415 4.06 17.1803 4.2C17.4192 4.34 17.6522 4.49 17.8794 4.65L21.5796 3.15L25 8.85L21.7973 11.19C21.818 11.33 21.8284 11.4652 21.8284 11.5956V12.4044C21.8284 12.5348 21.8076 12.67 21.7662 12.81L24.9689 15.15L21.5485 20.85L17.8794 19.35C17.6513 19.51 17.4129 19.66 17.1642 19.8C16.9154 19.94 16.6667 20.06 16.4179 20.16L15.9204 24H9.0796ZM12.5622 16.2C13.7645 16.2 14.7906 15.79 15.6405 14.97C16.4905 14.15 16.9154 13.16 16.9154 12C16.9154 10.84 16.4905 9.85 15.6405 9.03C14.7906 8.21 13.7645 7.8 12.5622 7.8C11.3391 7.8 10.3076 8.21 9.46766 9.03C8.6277 9.85 8.20813 10.84 8.20896 12C8.20896 13.16 8.62853 14.15 9.46766 14.97C10.3068 15.79 11.3383 16.2 12.5622 16.2Z" fill="#014370"/>
</svg>
