<svg width="25" height="25" viewBox="0 0 25 25" fill="none" xmlns="http://www.w3.org/2000/svg">
<path id="Vector" d="M12.5 0C5.6075 0 0 5.6075 0 12.5V17.6787C0 18.9587 1.12125 20 2.5 20H3.75C4.08152 20 4.39946 19.8683 4.63388 19.6339C4.8683 19.3995 5 19.0815 5 18.75V12.3213C5 11.9897 4.8683 11.6718 4.63388 11.4374C4.39946 11.2029 4.08152 11.0713 3.75 11.0713H2.615C3.31 6.23375 7.4725 2.5 12.5 2.5C17.5275 2.5 21.69 6.23375 22.385 11.0713H21.25C20.9185 11.0713 20.6005 11.2029 20.3661 11.4374C20.1317 11.6718 20 11.9897 20 12.3213V20C20 21.3787 18.8787 22.5 17.5 22.5H15V21.25H10V25H17.5C20.2575 25 22.5 22.7575 22.5 20C23.8787 20 25 18.9587 25 17.6787V12.5C25 5.6075 19.3925 0 12.5 0Z" fill="#014370"/>
</svg>
