<svg width="23" height="21" viewBox="0 0 23 21" fill="none" xmlns="http://www.w3.org/2000/svg">
<path id="Vector" d="M16.9266 13.5755C18.3047 11.8411 18.922 9.69071 18.6549 7.55461C18.3877 5.4185 17.2559 3.45418 15.4858 2.05464C13.7158 0.655095 11.438 -0.0764598 9.10813 0.00633226C6.77832 0.0891243 4.56831 0.980157 2.92024 2.50117C1.27218 4.02218 0.307609 6.06099 0.219504 8.20972C0.131399 10.3585 0.926258 12.4586 2.44506 14.0901C3.96386 15.7215 6.09459 16.764 8.41098 17.0088C10.7274 17.2536 13.0586 16.6828 14.9382 15.4105H14.9368C14.9795 15.463 15.025 15.5129 15.0763 15.5615L20.556 20.6151C20.8228 20.8614 21.1849 20.9999 21.5624 21C21.94 21.0001 22.3022 20.8619 22.5692 20.6158C22.8363 20.3697 22.9864 20.0358 22.9865 19.6876C22.9867 19.3394 22.8368 19.0054 22.5699 18.7591L17.0902 13.7054C17.0393 13.6579 16.9846 13.6153 16.9266 13.5755ZM17.2938 8.5297C17.2938 9.47778 17.0913 10.4166 16.6979 11.2925C16.3045 12.1684 15.7279 12.9643 15.001 13.6347C14.274 14.305 13.4111 14.8368 12.4613 15.1996C11.5116 15.5625 10.4936 15.7492 9.46562 15.7492C8.43761 15.7492 7.41967 15.5625 6.46991 15.1996C5.52016 14.8368 4.65719 14.305 3.93028 13.6347C3.20337 12.9643 2.62675 12.1684 2.23335 11.2925C1.83995 10.4166 1.63747 9.47778 1.63747 8.5297C1.63747 6.61497 2.46222 4.77866 3.93028 3.42474C5.39834 2.07083 7.38946 1.3102 9.46562 1.3102C11.5418 1.3102 13.5329 2.07083 15.001 3.42474C16.469 4.77866 17.2938 6.61497 17.2938 8.5297Z" fill="#F1F0EC"/>
</svg>
