<svg width="25" height="21" viewBox="0 0 25 21" fill="none" xmlns="http://www.w3.org/2000/svg">
<path id="Vector" d="M22.1154 2.73913H18.7837L17.1454 0.406305C17.0577 0.28139 16.9388 0.17896 16.7994 0.108088C16.66 0.0372159 16.5043 9.01686e-05 16.3462 0H8.65385C8.49571 9.01686e-05 8.34003 0.0372159 8.20061 0.108088C8.06119 0.17896 7.94233 0.28139 7.85457 0.406305L6.21514 2.73913H2.88462C2.11957 2.73913 1.38585 3.02772 0.844884 3.5414C0.303914 4.05509 0 4.7518 0 5.47826V18.2609C0 18.9873 0.303914 19.684 0.844884 20.1977C1.38585 20.7114 2.11957 21 2.88462 21H22.1154C22.8804 21 23.6141 20.7114 24.1551 20.1977C24.6961 19.684 25 18.9873 25 18.2609V5.47826C25 4.7518 24.6961 4.05509 24.1551 3.5414C23.6141 3.02772 22.8804 2.73913 22.1154 2.73913ZM16.8269 11.413C16.8269 12.2257 16.5732 13.02 16.0977 13.6957C15.6223 14.3714 14.9465 14.898 14.1558 15.209C13.3652 15.52 12.4952 15.6013 11.6559 15.4428C10.8165 15.2843 10.0455 14.8929 9.4404 14.3183C8.83527 13.7437 8.42317 13.0116 8.25622 12.2146C8.08926 11.4176 8.17495 10.5915 8.50244 9.84071C8.82994 9.08995 9.38453 8.44826 10.0961 7.99679C10.8076 7.54532 11.6442 7.30435 12.5 7.30435C13.6476 7.30435 14.7481 7.73723 15.5596 8.50776C16.3711 9.27829 16.8269 10.3233 16.8269 11.413Z" fill="#014370"/>
</svg>
