<svg width="22" height="22" viewBox="0 0 22 22" fill="none" xmlns="http://www.w3.org/2000/svg">
<path id="Vector" d="M11 22C8.18889 22 5.73915 21.0679 3.65078 19.2036C1.56241 17.3393 0.365852 15.0121 0.061111 12.2222H2.56667C2.85185 14.3407 3.79418 16.0926 5.39367 17.4778C6.99315 18.863 8.86193 19.5556 11 19.5556C13.3833 19.5556 15.4053 18.7253 17.0659 17.0647C18.7265 15.4041 19.5564 13.3825 19.5556 11C19.5556 8.61667 18.7253 6.5947 17.0647 4.93411C15.4041 3.27352 13.3825 2.44363 11 2.44444C9.59444 2.44444 8.28055 2.77037 7.05833 3.42222C5.83611 4.07407 4.80741 4.97037 3.97222 6.11111H7.33333V8.55555H0V1.22222H2.44444V4.09444C3.48333 2.79074 4.75159 1.78241 6.24922 1.06944C7.74685 0.356481 9.33044 0 11 0C12.5278 0 13.959 0.290482 15.2937 0.871444C16.6283 1.45241 17.7894 2.23626 18.777 3.223C19.7646 4.21137 20.5488 5.37248 21.1298 6.70633C21.7107 8.04018 22.0008 9.47141 22 11C22 12.5278 21.7095 13.959 21.1286 15.2937C20.5476 16.6283 19.7637 17.7894 18.777 18.777C17.7886 19.7646 16.6275 20.5488 15.2937 21.1298C13.9598 21.7107 12.5286 22.0008 11 22ZM14.4222 16.1333L9.77778 11.4889V4.88889H12.2222V10.5111L16.1333 14.4222L14.4222 16.1333Z" fill="#838282"/>
</svg>
