<svg width="24" height="22" viewBox="0 0 24 22" fill="none" xmlns="http://www.w3.org/2000/svg">
<path id="Vector" fill-rule="evenodd" clip-rule="evenodd" d="M6.66667 4.88889C6.66667 3.59227 7.22857 2.34877 8.22876 1.43192C9.22896 0.515078 10.5855 0 12 0C13.4145 0 14.771 0.515078 15.7712 1.43192C16.7714 2.34877 17.3333 3.59227 17.3333 4.88889C17.3333 6.1855 16.7714 7.42901 15.7712 8.34586C14.771 9.2627 13.4145 9.77778 12 9.77778C10.5855 9.77778 9.22896 9.2627 8.22876 8.34586C7.22857 7.42901 6.66667 6.1855 6.66667 4.88889ZM6.66667 12.2222C4.89856 12.2222 3.20286 12.8661 1.95262 14.0121C0.702379 15.1582 0 16.7126 0 18.3333C0 19.3058 0.421427 20.2384 1.17157 20.9261C1.92172 21.6137 2.93913 22 4 22H20C21.0609 22 22.0783 21.6137 22.8284 20.9261C23.5786 20.2384 24 19.3058 24 18.3333C24 16.7126 23.2976 15.1582 22.0474 14.0121C20.7971 12.8661 19.1014 12.2222 17.3333 12.2222H6.66667Z" fill="#014370"/>
</svg>
