<svg width="25" height="22" viewBox="0 0 25 22" fill="none" xmlns="http://www.w3.org/2000/svg">
<path id="Vector" d="M1.50008 9.1656C1.23484 9.1656 0.98047 9.06901 0.792918 8.89709C0.605366 8.72517 0.5 8.49199 0.5 8.24885V0.916743C0.5 0.673608 0.605366 0.440431 0.792918 0.268508C0.98047 0.0965853 1.23484 0 1.50008 0H9.50075C9.76599 0 10.0204 0.0965853 10.2079 0.268508C10.3955 0.440431 10.5008 0.673608 10.5008 0.916743V8.24885C10.5008 8.49199 10.3955 8.72517 10.2079 8.89709C10.0204 9.06901 9.76599 9.1656 9.50075 9.1656H1.50008ZM15.5013 9.1656C15.236 9.1656 14.9816 9.06901 14.7941 8.89709C14.6065 8.72517 14.5012 8.49199 14.5012 8.24885V0.916743C14.5012 0.673608 14.6065 0.440431 14.7941 0.268508C14.9816 0.0965853 15.236 0 15.5013 0H23.4999C23.7652 0 24.0195 0.0965853 24.2071 0.268508C24.3946 0.440431 24.5 0.673608 24.5 0.916743V8.24885C24.5 8.49199 24.3946 8.72517 24.2071 8.89709C24.0195 9.06901 23.7652 9.1656 23.4999 9.1656H15.5013ZM1.50008 22C1.23484 22 0.98047 21.9034 0.792918 21.7315C0.605366 21.5596 0.5 21.3264 0.5 21.0833V13.7493C0.5 13.5062 0.605366 13.273 0.792918 13.1011C0.98047 12.9292 1.23484 12.8326 1.50008 12.8326H9.50075C9.76599 12.8326 10.0204 12.9292 10.2079 13.1011C10.3955 13.273 10.5008 13.5062 10.5008 13.7493V21.0833C10.5008 21.3264 10.3955 21.5596 10.2079 21.7315C10.0204 21.9034 9.76599 22 9.50075 22H1.50008ZM15.5013 22C15.236 22 14.9816 21.9034 14.7941 21.7315C14.6065 21.5596 14.5012 21.3264 14.5012 21.0833V13.7493C14.5012 13.5062 14.6065 13.273 14.7941 13.1011C14.9816 12.9292 15.236 12.8326 15.5013 12.8326H23.4999C23.7652 12.8326 24.0195 12.9292 24.2071 13.1011C24.3946 13.273 24.5 13.5062 24.5 13.7493V21.0833C24.5 21.3264 24.3946 21.5596 24.2071 21.7315C24.0195 21.9034 23.7652 22 23.4999 22H15.5013Z" fill="#838282"/>
</svg>
