<svg width="25" height="22" viewBox="2.5 -1.5 25 22" fill="none" xmlns="http://www.w3.org/2000/svg">
<path id="Vector" d="M5.77273 22V19.4118H7.88182L10.4852 10.9029C10.661 10.3422 10.9853 9.89439 11.458 9.55965C11.9308 9.2249 12.4524 9.05796 13.0227 9.05882H16.9773C17.5485 9.05882 18.0705 9.2262 18.5433 9.56094C19.0161 9.89569 19.3399 10.343 19.5148 10.9029L22.1182 19.4118H24.2273V22H5.77273ZM13.6818 6.47059V0H16.3182V6.47059H13.6818ZM21.525 9.67353L19.6466 7.82941L24.3261 3.26765L26.1716 5.07941L21.525 9.67353ZM22.9091 15.5294V12.9412H29.5V15.5294H22.9091ZM8.475 9.67353L3.82841 5.07941L5.67386 3.26765L10.3534 7.82941L8.475 9.67353ZM0.5 15.5294V12.9412H7.09091V15.5294H0.5Z" fill="#014370"/>
</svg>
