<svg width="32" height="32" viewBox="0 0 32 32" fill="none" xmlns="http://www.w3.org/2000/svg">
<g id="mdi:bell-outline">
<path id="Vector" d="M13.3333 28H18.6667C18.6667 29.4667 17.4667 30.6667 16 30.6667C14.5333 30.6667 13.3333 29.4667 13.3333 28ZM28 25.3333V26.6667H4V25.3333L6.66667 22.6667V14.6667C6.66667 10.5333 9.33333 6.93332 13.3333 5.73332V5.33332C13.3333 3.86666 14.5333 2.66666 16 2.66666C17.4667 2.66666 18.6667 3.86666 18.6667 5.33332V5.73332C22.6667 6.93332 25.3333 10.5333 25.3333 14.6667V22.6667L28 25.3333ZM22.6667 14.6667C22.6667 10.9333 19.7333 7.99999 16 7.99999C12.2667 7.99999 9.33333 10.9333 9.33333 14.6667V24H22.6667V14.6667Z" fill="#014370"/>
</g>
</svg>
